<svg version="1.1" id="Layer" x="0px" y="0px" viewBox="0 0 100 100">
<style type="text/css">
	.st0{fill:#FFFFFF;}
</style>
<g id="Shape">
	<path class="st0" d="M0,12.5c0,25,0,50,0,75c33.3,0,66.7,0,100,0c0-25,0-50,0-75C66.7,12.5,33.3,12.5,0,12.5z M93.7,81.2
		c-15.6,0-31.2,0-46.8,0c0-2,0-4,0-6.1c-1,0-2,0-3.1,0c0,2,0,4,0,6.1c-12.5,0-24.9,0-37.4,0c0-7.2,0-14.5,0-21.8c2,0,4,0,6.1,0
		c0-1.1,0-2.1,0-3.1c-2,0-4.1,0-6.1,0c0-6.2,0-12.4,0-18.7c29.2,0,58.3,0,87.4,0C93.7,52.1,93.7,66.6,93.7,81.2z M93.7,31.2
		c-29.1,0-58.2,0-87.3,0C6.2,30,6.1,22.3,6.3,18.8c29.1,0,58.2,0,87.4,0C93.7,23,93.7,27.1,93.7,31.2z"/>
	<path class="st0" d="M21.9,57.7c0-0.5,0-1,0-1.4c-2.1,0-4.1,0-6.2,0c0,1,0,2,0,3c2.1,0,4.2,0,6.2,0C21.9,58.8,21.9,58.3,21.9,57.7z
		"/>
	<path class="st0" d="M31.2,57.7c0-0.5,0-1,0-1.4c-2.1,0-4.1,0-6.2,0c0,1,0,2,0,3c2.1,0,4.2,0,6.2,0C31.3,58.8,31.3,58.3,31.2,57.7z
		"/>
	<path class="st0" d="M34.4,59.3c2.1,0,4.1,0,6.2,0c0-1,0-2,0-3c-2.2,0-4.2,0-6.2,0c0,0.6,0,1.1,0,1.6
		C34.4,58.4,34.4,58.9,34.4,59.3z"/>
	<path class="st0" d="M46.8,56.3c-1,0-2,0-3,0c0,2,0,4.1,0,6.1c1,0,2,0,3,0C46.8,60.4,46.8,58.3,46.8,56.3z"/>
	<path class="st0" d="M45.2,65.6c-0.5,0-1,0-1.4,0c0,2.1,0,4.1,0,6.2c1,0,2,0,3,0c0-2.1,0-4.2,0-6.2C46.3,65.6,45.8,65.6,45.2,65.6z
		"/>
</g>
</svg>
