<svg version="1.1" id="Layer" x="0px" y="0px" viewBox="0 0 100 100">
<style type="text/css">
	.st0{fill:#FFFFFF;}
</style>
<g id="Shape">
	<path class="st0" d="M0,0c0,25,0,50,0,75c7.3,0,14.5,0,21.7,0c0-2.2,0-4.2,0-6.3c-5.1,0-10.3,0-15.4,0c0-14.6,0-29.1,0-43.6
		c29.2,0,58.3,0,87.3,0c0,14.6,0,29.1,0,43.7c-5.2,0-10.3,0-15.4,0c0,2.1,0,4.1,0,6.2c7.3,0,14.6,0,21.8,0c0-25,0-50,0-75
		C66.6,0,33.3,0,0,0z M93.7,18.6c-29.1,0-58.1,0-87.3,0c0-4,0-8.1,0-12.3c29,0,58.1,0,87.3,0C93.7,10.5,93.7,14.5,93.7,18.6z"/>
	<path class="st0" d="M46.9,96.9c0,1,0,2.1,0,3.1c6.2,0,12.5,0,18.8,0c0-1,0-2.1,0-3.1h-0.1C59.3,96.9,53.2,96.9,46.9,96.9z"/>
	<path class="st0" d="M37.5,71.9c-1.1,0-2.1,0-3.1,0c0,0.9,0,1.9,0,3.2c1.1,0,2,0,3.1,0c0,1,0,2,0,3c1.1,0,2.1,0,3.2,0
		c0-14.6,0-29.1,0-43.7h-0.1c-1,0-1.9,0-3.1,0C37.5,47,37.5,59.4,37.5,71.9z"/>
	<path class="st0" d="M46.9,34.4c0,11.3,0,22.7,0.1,34.3c0.9,0,1.9,0,3,0c0-7.2,0-14.4,0-21.8c2.2,0,4.1,0,6.2,0h0.1c0-1,0-2,0-3.2
		c-2.2,0-4.2,0-6.3,0c0-3.2,0-6.2,0-9.3C48.9,34.4,47.9,34.4,46.9,34.4z"/>
	<path class="st0" d="M71.9,90.6c1,0,2,0,3,0c0-11.5,0-22.9,0-34.3c-1,0-2,0-3,0C71.9,67.7,71.9,79.2,71.9,90.6z"/>
	<path class="st0" d="M56.2,68.7c1,0,2,0,3.1,0c0-5.1,0-10.2,0-15.5c2.2,0,4.2,0,6.3,0v-0.1c0-1,0-1.9,0-3.1c-2.2,0-4.2,0-6.3,0
		c0-1.1,0-2.1,0-3.1c-1.1,0-2,0-3,0h-0.1C56.3,54.1,56.3,61.3,56.2,68.7z"/>
	<path class="st0" d="M65.6,71.7c1,0,2,0,3.1,0c0-5,0-10.2,0-15.5c1.2,0,2.2,0,3.2,0c0-1,0-2,0-3.1c-2.3,0-4.3,0-6.3,0v0.1
		C65.6,59.4,65.6,65.4,65.6,71.7z"/>
	<path class="st0" d="M34.3,71.9c0-1,0-2,0-3c-3.2,0-6.2,0-9.2,0c0,3.1,0,6.1,0,9.2c1,0,2,0,3,0c0-2,0-4-0.1-6.2
		C30.2,71.9,32.2,71.9,34.3,71.9z"/>
	<path class="st0" d="M68.8,93.7c-1.1,0-2.1,0-3.2,0c0,1.2,0,2.2,0,3.2h0.1c2.1,0,4.1,0,6.2,0c0-2.3,0-4.3,0-6.3c-1,0-2,0-3.1,0
		C68.8,91.6,68.8,92.6,68.8,93.7z"/>
	<path class="st0" d="M46.8,34.4c0-1,0-2,0-3c-2.2,0-4.2,0-6.2,0c0,1,0,2,0,3C42.7,34.3,44.8,34.3,46.8,34.4z"/>
	<path class="st0" d="M31.3,78.1c-1.1,0-2.1,0-3.1,0c0,1,0,2,0,3.1c1.1,0,2.1,0,3.1,0C31.2,80.3,31.2,79.3,31.3,78.1z"/>
	<path class="st0" d="M34.4,84.3c0-0.9,0-1.9,0-3.1c-1.1,0-2.1,0-3.1,0c0,1,0,2,0,3.1C32.4,84.3,33.4,84.3,34.4,84.3z"/>
	<path class="st0" d="M34.4,84.4c0,1,0,2,0,3.1c1.1,0,2.1,0,3.1,0c0-1,0-1.9,0-3.1C36.4,84.4,35.4,84.4,34.4,84.4z"/>
	<path class="st0" d="M37.5,90.6c1.1,0,2.1,0,3.1,0c0-0.9,0-1.9,0-3.1c-1.1,0-2.1,0-3.1,0C37.5,88.5,37.5,89.5,37.5,90.6z"/>
	<path class="st0" d="M43.8,90.6c-1.1,0-2.1,0-3.1,0c0,1,0,2,0,3.1c1.1,0,2.1,0,3.1,0C43.7,92.8,43.7,91.8,43.8,90.6z"/>
	<circle class="st0" cx="45.4" cy="95.4" r="2.2"/>
</g>
</svg>
